<?xml version="1.0" encoding="utf-8"?>
<!-- Generator: Adobe Illustrator 23.0.1, SVG Export Plug-In . SVG Version: 6.00 Build 0)  -->
<svg version="1.1" id="Layer_1" xmlns="http://www.w3.org/2000/svg" xmlns:xlink="http://www.w3.org/1999/xlink" x="0px" y="0px"
	 viewBox="0 0 244.9 378" style="enable-background:new 0 0 244.9 378;" xml:space="preserve">
<style type="text/css">
	.st0{clip-path:url(#SVGID_2_);}
	.st1{clip-path:url(#SVGID_4_);}
	.st2{fill:#414042;}
	.st3{fill:none;stroke:#231F20;stroke-miterlimit:10;}
	.st4{fill:#D1D3D4;}
	.st5{fill:#FFFFFF;}
	.st6{fill:#E6E7E8;}
	.st7{fill:#C49A6C;}
	.st8{fill:none;stroke:#E6E7E8;stroke-miterlimit:10;}
	.st9{fill:#231F20;}
	.st10{font-family:'MyriadPro-BoldIt';}
	.st11{font-size:48px;}
	.st12{font-size:21.6224px;}
	.st13{font-size:21.9395px;}
	.st14{font-size:21.9636px;}
	.st15{font-size:22.1369px;}
	.st16{clip-path:url(#SVGID_6_);}
	.st17{font-size:22.08px;}
	.st18{font-size:22.0942px;}
	.st19{font-size:22.0604px;}
	.st20{font-size:21.9305px;}
	.st21{font-size:21.9139px;}
	.st22{font-size:21.8218px;}
</style>
<title>Artwork 1</title>
<g>
	<g id="Layer_1-2">
		<g id="Artwork_1">
			<g>
				<defs>
					<rect id="SVGID_1_" x="0" width="244.9" height="378"/>
				</defs>
				<clipPath id="SVGID_2_">
					<use xlink:href="#SVGID_1_"  style="overflow:visible;"/>
				</clipPath>
				<g class="st0">
					<g>
						<defs>
							<rect id="SVGID_3_" x="0" width="244.9" height="378"/>
						</defs>
						<clipPath id="SVGID_4_">
							<use xlink:href="#SVGID_3_"  style="overflow:visible;"/>
						</clipPath>
						<g class="st1">
							<path class="st2" d="M209.1,66.4H17.7c-5.7,0-10.3-5.1-10.3-11.5V29c0-6.3,4.6-11.5,10.3-11.5c0,0,0,0,0,0h191.4
								c5.7,0,10.3,5.2,10.3,11.5v25.9C219.4,61.2,214.8,66.3,209.1,66.4"/>
							<path class="st3" d="M17.7,17.5h191.3c5.7,0,10.3,5.1,10.3,11.5v25.9c0,6.3-4.6,11.5-10.3,11.5H17.7
								c-5.7,0-10.3-5.1-10.3-11.5V29C7.4,22.6,12.1,17.5,17.7,17.5z"/>
							<path class="st2" d="M198.5,18H28.4c-1.6,0-2.9-1.4-2.9-3.2v-11c0-1.8,1.2-3.2,2.8-3.3c0,0,0,0,0.1,0h170.1
								c1.6,0,2.9,1.4,2.9,3.2c0,0,0,0,0,0v11C201.4,16.5,200.1,18,198.5,18C198.5,18,198.5,18,198.5,18"/>
							<path class="st3" d="M28.3,0.5h170.1c1.6,0,2.9,1.4,2.9,3.2v11c0,1.8-1.3,3.2-2.9,3.2H28.3c-1.6,0-2.9-1.4-2.9-3.2v-11
								C25.5,1.9,26.8,0.5,28.3,0.5z"/>
							<path class="st4" d="M31.2,263.8"/>
							<line class="st3" x1="31.2" y1="263.8" x2="31.2" y2="263.8"/>
							<path class="st5" d="M0,208.1"/>
							<line class="st3" x1="0" y1="208.1" x2="0" y2="208.1"/>
							<line class="st3" x1="19.4" y1="107.2" x2="18.7" y2="93.2"/>
							<line class="st3" x1="199.9" y1="244.6" x2="208.2" y2="92.1"/>
							<line class="st3" x1="208.2" y1="92.1" x2="207.8" y2="92.1"/>
							<line class="st3" x1="18.7" y1="93.2" x2="18.7" y2="93.2"/>
							<path class="st6" d="M196.3,316.4c0,19.6-37.1,35.5-82.9,35.5S30.5,336,30.5,316.4"/>
							<path class="st3" d="M196.3,316.4c0,19.6-37.1,35.5-82.9,35.5S30.5,336,30.5,316.4"/>
							<polygon class="st6" points="200.2,244.6 196.3,319.4 30.6,319.4 19.6,107.2 26.9,245.8 							"/>
							<polygon class="st3" points="200.2,244.6 196.3,319.4 30.6,319.4 19.6,107.2 26.9,245.8 							"/>
							<line class="st3" x1="209.4" y1="66.1" x2="209.4" y2="66.4"/>
							<polygon class="st7" points="208,92.1 200.2,244.6 26.9,245.8 19.6,107.2 18.9,93.2 							"/>
							<polygon class="st3" points="208,92.1 200.2,244.6 26.9,245.8 19.6,107.2 18.9,93.2 							"/>
							<polygon class="st6" points="209.4,66.4 208,92.1 18.9,93.2 17.5,65.9 							"/>
							<polygon class="st3" points="209.4,66.4 208,92.1 18.9,93.2 17.5,65.9 							"/>
							<path class="st6" d="M189.3,298.6H37.7c-3.2,0-5.8,2.9-5.8,6.4l0,0v14c0,3.5,2.6,6.4,5.8,6.4h151.6c3.2,0,5.8-2.9,5.8-6.4
								c0,0,0,0,0,0v-14C195.1,301.5,192.5,298.6,189.3,298.6C189.3,298.6,189.3,298.6,189.3,298.6"/>
							<path class="st8" d="M37.7,298.6h151.6c3.2,0,5.8,2.9,5.8,6.4v14c0,3.5-2.6,6.4-5.8,6.4H37.7c-3.2,0-5.8-2.9-5.8-6.4v-14
								C31.9,301.5,34.5,298.6,37.7,298.6z"/>
						</g>
					</g>
					<text transform="matrix(0.8976 0 0 1 90.6152 174.3203)" class="st9 st10 st11">KH</text>
					<text transform="matrix(0.9991 0.531 -0.3942 0.919 42.4467 353.6884)" class="st9 st10 st12">K</text>
					<text transform="matrix(1.1563 0.322 -0.2168 0.9762 55.3568 361.0909)" class="st9 st10 st13">A</text>
					<text transform="matrix(1.3265 0.2815 -0.1715 0.9852 67.8165 365.4991)" class="st9 st10 st14">F</text>
					<text transform="matrix(1.334 0.1197 -7.162642e-02 0.9974 82.1674 369.2592)" class="st9 st10 st15">F</text>
					<g>
						<defs>
							<rect id="SVGID_5_" x="0" width="244.9" height="378"/>
						</defs>
						<clipPath id="SVGID_6_">
							<use xlink:href="#SVGID_5_"  style="overflow:visible;"/>
						</clipPath>
						<g class="st16">
							<text transform="matrix(1.3375 0 0 1 96.4766 371.6006)" class="st9 st10 st17">E</text>
							<text transform="matrix(1.0765 -4.996780e-02 3.588232e-02 0.9994 111.3881 372.4399)" class="st9 st10 st18">H</text>
							<text transform="matrix(1.0961 -0.1902 0.1348 0.9909 126.1809 371.5403)" class="st9 st10 st19">U</text>
						</g>
					</g>
					<text transform="matrix(1.4279 -0.292 0.1627 0.9867 141.1981 369.2585)" class="st9 st10 st20">S</text>
					<text transform="matrix(1.2753 -0.4836 0.2894 0.9572 157.473 366.2703)" class="st9 st10 st21">E</text>
					<text transform="matrix(1.2171 -0.4958 0.3088 0.9511 170.6416 361.8725)" class="st9 st10 st22">T</text>
				</g>
			</g>
		</g>
	</g>
</g>
</svg>
