<?xml version="1.0" encoding="utf-8"?>
<!-- Generator: Adobe Illustrator 23.0.1, SVG Export Plug-In . SVG Version: 6.00 Build 0)  -->
<svg version="1.1" id="logo" xmlns="http://www.w3.org/2000/svg" xmlns:xlink="http://www.w3.org/1999/xlink" x="0px" y="0px"
	 viewBox="0 0 536.3 352.8" style="enable-background:new 0 0 536.3 352.8;" xml:space="preserve">
<style type="text/css">
	.st0{fill:#414042;stroke:#000000;stroke-miterlimit:10;}
	.st1{fill:#D1D3D4;stroke:#000000;stroke-miterlimit:10;}
	.st2{fill:#FFFFFF;stroke:#000000;stroke-miterlimit:10;}
	.st3{fill:none;stroke:#000000;stroke-miterlimit:10;}
	.st4{fill:#E6E7E8;stroke:#000000;stroke-miterlimit:10;}
	.st5{fill:#C49A6C;stroke:#000000;stroke-miterlimit:10;}
	.st6{fill:#E6E7E8;stroke:#E6E7E8;stroke-miterlimit:10;}
	.st7{fill:none;}
	.st8{font-family:'Athelas-Bold';}
	.st9{font-size:48px;}
	.st10{font-size:65.2676px;}
</style>
<path class="st0" d="M225.3,66.5H12.1c-6.3,0-11.5-5.1-11.5-11.5V29.1c0-6.3,5.1-11.5,11.5-11.5h213.2c6.3,0,11.5,5.1,11.5,11.5
	v25.9C236.8,61.4,231.7,66.5,225.3,66.5z"/>
<path class="st0" d="M213.5,18.1H24c-1.8,0-3.2-1.4-3.2-3.2v-11c0-1.8,1.4-3.2,3.2-3.2h189.5c1.8,0,3.2,1.4,3.2,3.2v11
	C216.7,16.7,215.3,18.1,213.5,18.1z"/>
<line class="st1" x1="27.2" y1="263.9" x2="27.2" y2="263.9"/>
<line class="st2" x1="-10.8" y1="214.9" x2="-10.8" y2="214.9"/>
<g>
	<line class="st3" x1="14" y1="107.4" x2="13.2" y2="93.3"/>
	<line class="st3" x1="215.1" y1="244.8" x2="224.3" y2="92.3"/>
	<line class="st3" x1="224.3" y1="92.3" x2="223.8" y2="92.3"/>
	<line class="st3" x1="13.2" y1="93.3" x2="13.2" y2="93.3"/>
</g>
<path class="st4" d="M211.1,316.6c0,19.6-41.3,35.4-92.3,35.4s-92.3-15.9-92.3-35.4"/>
<polygon class="st4" points="215.4,244.8 211.1,319.6 26.4,319.6 14.3,107.4 22.4,246 "/>
<line class="st3" x1="225.6" y1="66.3" x2="225.6" y2="66.5"/>
<polygon class="st5" points="224.1,92.3 215.4,244.8 22.4,246 14.3,107.4 13.5,93.3 "/>
<polygon class="st4" points="225.6,66.5 224.1,92.3 13.5,93.3 11.9,66.1 "/>
<path class="st6" d="M203.3,298.8H34.3c-3.5,0-6.4,2.9-6.4,6.4v14c0,3.5,2.9,6.4,6.4,6.4h168.9c3.5,0,6.4-2.9,6.4-6.4v-14
	C209.7,301.7,206.8,298.8,203.3,298.8z"/>
<rect x="84.6" y="141.3" class="st7" width="68.4" height="101.9"/>
<text transform="matrix(1 0 0 1 84.5528 174.8752)" class="st8 st9">KH</text>
<text transform="matrix(1.0141 0 0 1 225.6246 175.2884)" class="st8 st10">Kaffehuset</text>
</svg>
