<?xml version="1.0" encoding="utf-8"?>
<!-- Generator: Adobe Illustrator 23.0.1, SVG Export Plug-In . SVG Version: 6.00 Build 0)  -->
<svg version="1.1" id="Layer_1" xmlns="http://www.w3.org/2000/svg" xmlns:xlink="http://www.w3.org/1999/xlink" x="0px" y="0px"
	 viewBox="0 0 247.4 198.7" style="enable-background:new 0 0 247.4 198.7;" xml:space="preserve">
<style type="text/css">
	.st0{clip-path:url(#SVGID_2_);}
	.st1{clip-path:url(#SVGID_4_);}
	.st2{clip-path:url(#SVGID_4_);fill:none;stroke:#000000;stroke-miterlimit:10;}
</style>
<g id="Artwork_4_1_">
	<g>
		<defs>
			<rect id="SVGID_1_" y="0" width="247.4" height="198.7"/>
		</defs>
		<clipPath id="SVGID_2_">
			<use xlink:href="#SVGID_1_"  style="overflow:visible;"/>
		</clipPath>
		<g class="st0">
			<defs>
				<rect id="SVGID_3_" y="0" width="247.4" height="198.7"/>
			</defs>
			<clipPath id="SVGID_4_">
				<use xlink:href="#SVGID_3_"  style="overflow:visible;"/>
			</clipPath>
			<path class="st1" d="M74.5,164.7L74.5,164.7c-5.4,0.6-10.3-3.3-10.8-8.7L48.2,11.4C47.6,6,51.6,1.1,57,0.6
				C62.4,0,67.2,3.9,67.8,9.3l15.4,144.6C83.8,159.3,79.9,164.1,74.5,164.7"/>
			<path class="st2" d="M74.5,164.7L74.5,164.7c-5.4,0.6-10.3-3.3-10.8-8.7L48.2,11.4C47.6,6,51.6,1.1,57,0.6
				C62.4,0,67.2,3.9,67.8,9.3l15.4,144.6C83.8,159.3,79.9,164.1,74.5,164.7z"/>
			<path class="st1" d="M10.2,20H56c5.4,0,9.7-4.3,9.7-9.7c0-5.4-4.3-9.7-9.7-9.7H10.2c-5.4,0-9.7,4.3-9.7,9.7
				C0.5,15.7,4.8,20,10.2,20"/>
			<path class="st2" d="M10.2,20H56c5.4,0,9.7-4.3,9.7-9.7c0-5.4-4.3-9.7-9.7-9.7H10.2c-5.4,0-9.7,4.3-9.7,9.7
				C0.5,15.7,4.8,20,10.2,20z"/>
			<path class="st1" d="M68.5,49.5h168.7c5.4,0,9.7-4.3,9.7-9.7c0-5.4-4.3-9.7-9.7-9.7H68.5c-5.4,0-9.7,4.3-9.7,9.7
				C58.8,45.2,63.2,49.5,68.5,49.5"/>
			<path class="st2" d="M68.5,49.5h168.7c5.4,0,9.7-4.3,9.7-9.7c0-5.4-4.3-9.7-9.7-9.7H68.5c-5.4,0-9.7,4.3-9.7,9.7
				C58.8,45.2,63.2,49.5,68.5,49.5z"/>
			<path class="st1" d="M73.4,165.1h153.1c5.4,0,9.7-4.3,9.7-9.7v-0.7c0-5.4-4.3-9.7-9.7-9.7H73.4c-5.4,0-9.7,4.3-9.7,9.7v0.7
				C63.7,160.8,68,165.1,73.4,165.1"/>
			<path class="st2" d="M73.4,165.1h153.1c5.4,0,9.7-4.3,9.7-9.7v-0.7c0-5.4-4.3-9.7-9.7-9.7H73.4c-5.4,0-9.7,4.3-9.7,9.7v0.7
				C63.7,160.8,68,165.1,73.4,165.1z"/>
			<path class="st1" d="M81,132.3l146.9-18.6c5.3-0.7,9.1-5.5,8.4-10.8c-0.7-5.3-5.5-9.1-10.8-8.4L78.5,113.1
				c-5.3,0.7-9.1,5.5-8.4,10.8C70.8,129.2,75.6,133,81,132.3"/>
			<path class="st2" d="M81,132.3l146.9-18.6c5.3-0.7,9.1-5.5,8.4-10.8c-0.7-5.3-5.5-9.1-10.8-8.4L78.5,113.1
				c-5.3,0.7-9.1,5.5-8.4,10.8C70.8,129.2,75.6,133,81,132.3z"/>
			<path class="st1" d="M229.3,113.2l-5-0.7c-3.8-0.5-6.5-4.1-5.9-7.9l9.6-67.2c0.5-3.8,4.1-6.5,7.9-5.9l5,0.7
				c3.8,0.5,6.5,4.1,5.9,7.9l-9.6,67.2C236.7,111.1,233.2,113.7,229.3,113.2"/>
			<path class="st2" d="M229.3,113.2l-5-0.7c-3.8-0.5-6.5-4.1-5.9-7.9l9.6-67.2c0.5-3.8,4.1-6.5,7.9-5.9l5,0.7
				c3.8,0.5,6.5,4.1,5.9,7.9l-9.6,67.2C236.7,111.1,233.2,113.7,229.3,113.2z"/>
			<path class="st1" d="M188.4,116l-5-0.7c-3.8-0.5-6.5-4.1-5.9-7.9l9.6-67.2c0.5-3.8,4.1-6.5,7.9-5.9l5,0.7
				c3.8,0.5,6.5,4.1,5.9,7.9l-9.6,67.2C195.7,113.9,192.2,116.6,188.4,116"/>
			<path class="st2" d="M188.4,116l-5-0.7c-3.8-0.5-6.5-4.1-5.9-7.9l9.6-67.2c0.5-3.8,4.1-6.5,7.9-5.9l5,0.7
				c3.8,0.5,6.5,4.1,5.9,7.9l-9.6,67.2C195.7,113.9,192.2,116.6,188.4,116z"/>
			<path class="st1" d="M152.4,118.1h-5c-3.9,0-7-3.1-7-7V43.2c0-3.9,3.1-7,7-7h5c3.9,0,7,3.1,7,7v67.9
				C159.4,115,156.3,118.1,152.4,118.1"/>
			<path class="st2" d="M152.4,118.1h-5c-3.9,0-7-3.1-7-7V43.2c0-3.9,3.1-7,7-7h5c3.9,0,7,3.1,7,7v67.9
				C159.4,115,156.3,118.1,152.4,118.1z"/>
			<path class="st1" d="M113.3,117.3l-5,0.7c-3.8,0.5-7.4-2.1-7.9-5.9l-9.5-67.2C90.3,41,93,37.5,96.8,37l5-0.7
				c3.8-0.5,7.4,2.1,7.9,5.9l9.5,67.2C119.8,113.2,117.1,116.8,113.3,117.3"/>
			<path class="st2" d="M113.3,117.3l-5,0.7c-3.8,0.5-7.4-2.1-7.9-5.9l-9.5-67.2C90.3,41,93,37.5,96.8,37l5-0.7
				c3.8-0.5,7.4,2.1,7.9,5.9l9.5,67.2C119.8,113.2,117.1,116.8,113.3,117.3z"/>
			<path class="st1" d="M105,184.1c0,7.8-6.3,14.1-14.1,14.1s-14.1-6.3-14.1-14.1S83.1,170,90.9,170S105,176.4,105,184.1"/>
			<circle class="st2" cx="90.9" cy="184.1" r="14.1"/>
			<path class="st1" d="M221,183.6c0-8.1-6.6-14.7-14.7-14.7c-8.1,0-14.7,6.6-14.7,14.7c0,8.1,6.6,14.7,14.7,14.7
				C214.5,198.2,221,191.7,221,183.6"/>
			<path class="st2" d="M221,183.6c0-8.1-6.6-14.7-14.7-14.7c-8.1,0-14.7,6.6-14.7,14.7c0,8.1,6.6,14.7,14.7,14.7
				C214.5,198.2,221,191.7,221,183.6z"/>
		</g>
	</g>
</g>
</svg>
