<?xml version="1.0" encoding="utf-8"?>
<!-- Generator: Adobe Illustrator 23.0.1, SVG Export Plug-In . SVG Version: 6.00 Build 0)  -->
<svg version="1.1" id="Layer_1" xmlns="http://www.w3.org/2000/svg" xmlns:xlink="http://www.w3.org/1999/xlink" x="0px" y="0px"
	 viewBox="0 0 154.3 110.1" style="enable-background:new 0 0 154.3 110.1;" xml:space="preserve">
<style type="text/css">
	.st0{clip-path:url(#SVGID_2_);}
	.st1{clip-path:url(#SVGID_4_);}
	.st2{clip-path:url(#SVGID_4_);fill:none;stroke:#000000;stroke-miterlimit:10;}
	.st3{clip-path:url(#SVGID_4_);fill:none;stroke:#FFFFFF;stroke-miterlimit:10;}
</style>
<g id="Artwork_5_1_">
	<g>
		<defs>
			<rect id="SVGID_1_" width="154.3" height="110.1"/>
		</defs>
		<clipPath id="SVGID_2_">
			<use xlink:href="#SVGID_1_"  style="overflow:visible;"/>
		</clipPath>
		<g class="st0">
			<defs>
				<rect id="SVGID_3_" width="154.3" height="110.1"/>
			</defs>
			<clipPath id="SVGID_4_">
				<use xlink:href="#SVGID_3_"  style="overflow:visible;"/>
			</clipPath>
			<path class="st1" d="M134.3,32.4c-2.4,13.4-20.9,21.4-41.2,17.7c-20.3-3.7-34.8-17.5-32.4-31S81.7-2.3,102,1.4
				C122.3,5.1,136.8,18.9,134.3,32.4"/>
			<path class="st2" d="M134.3,32.4c-2.4,13.4-20.9,21.4-41.2,17.7c-20.3-3.7-34.8-17.5-32.4-31S81.7-2.3,102,1.4
				C122.3,5.1,136.8,18.9,134.3,32.4z"/>
			<path class="st1" d="M152.5,91c-2.4,13.4-20.9,21.4-41.2,17.7c-20.3-3.7-34.8-17.5-32.4-31S99.8,56.4,120.1,60
				C140.4,63.7,154.9,77.6,152.5,91"/>
			<ellipse transform="matrix(0.178 -0.984 0.984 0.178 12.0799 183.2256)" class="st2" cx="115.7" cy="84.4" rx="24.7" ry="37.4"/>
			<path class="st1" d="M74.3,67.9c-2.4,13.4-20.9,21.4-41.2,17.7C12.8,81.9-1.7,68,0.8,54.6C3.2,41.1,21.6,33.2,42,36.9
				C62.3,40.6,76.8,54.4,74.3,67.9"/>
			<path class="st2" d="M74.3,67.9c-2.4,13.4-20.9,21.4-41.2,17.7C12.8,81.9-1.7,68,0.8,54.6C3.2,41.1,21.6,33.2,42,36.9
				C62.3,40.6,76.8,54.4,74.3,67.9z"/>
			<path class="st1" d="M0.3,53.1c2-1.3,5-2.7,8.6-2.6c5.7,0.2,9,4,12.9,6.4c8.5,5.1,11.7-1.5,23.8,1.6c9.6,2.5,11.4,7.1,20.8,7.7
				c4.3,0.3,7.9-0.4,10.2-1.1"/>
			<path class="st3" d="M0.3,53.1c2-1.3,5-2.7,8.6-2.6c5.7,0.2,9,4,12.9,6.4c8.5,5.1,11.7-1.5,23.8,1.6c9.6,2.5,11.4,7.1,20.8,7.7
				c4.3,0.3,7.9-0.4,10.2-1.1"/>
			<path class="st1" d="M78,76.4c2-1.3,5.1-2.6,8.6-2.5c5.7,0.2,8.9,4.1,12.8,6.6c8.4,5.2,11.7-1.4,23.8,2c9.5,2.6,11.3,7.3,20.7,8
				c4.3,0.3,7.9-0.3,10.2-0.9"/>
			<path class="st3" d="M78,76.4c2-1.3,5.1-2.6,8.6-2.5c5.7,0.2,8.9,4.1,12.8,6.6c8.4,5.2,11.7-1.4,23.8,2c9.5,2.6,11.3,7.3,20.7,8
				c4.3,0.3,7.9-0.3,10.2-0.9"/>
			<path class="st1" d="M61.7,13.6c2.1-1.1,5.3-2.2,8.8-1.7c5.6,0.7,8.5,4.9,12.2,7.7c7.9,6,11.8-0.3,23.5,4.1
				c9.2,3.5,10.6,8.3,19.9,9.8c4.2,0.7,7.9,0.4,10.3,0"/>
			<path class="st3" d="M61.7,13.6c2.1-1.1,5.3-2.2,8.8-1.7c5.6,0.7,8.5,4.9,12.2,7.7c7.9,6,11.8-0.3,23.5,4.1
				c9.2,3.5,10.6,8.3,19.9,9.8c4.2,0.7,7.9,0.4,10.3,0"/>
		</g>
	</g>
</g>
</svg>
