<?xml version="1.0" encoding="utf-8"?>
<!-- Generator: Adobe Illustrator 23.0.3, SVG Export Plug-In . SVG Version: 6.00 Build 0)  -->
<svg version="1.1" id="Layer_1" xmlns="http://www.w3.org/2000/svg" xmlns:xlink="http://www.w3.org/1999/xlink" x="0px" y="0px"
	 viewBox="0 0 247.4 198.7" style="enable-background:new 0 0 247.4 198.7;" xml:space="preserve">
<style type="text/css">
	.st0{fill:#FFFFFF;}
</style>
<g id="Artwork_4_1_">
	<g>
		<path class="st0" d="M56,1.1H9.7C4.3,1.1,0,5.4,0,10.8v0c0,5.4,4.3,9.7,9.7,9.7H56c5.4,0,9.7-4.3,9.7-9.7v0
			C65.7,5.4,61.4,1.1,56,1.1z"/>
		<path class="st0" d="M104.4,118.7L104.4,118.7c4.8-0.6,8.3-5,7.7-9.8l-7.5-63.4c-0.6-4.8-5-8.3-9.8-7.7l0,0
			c-4.8,0.6-8.3,5-7.7,9.8l7.5,63.4C95.2,115.8,99.6,119.3,104.4,118.7z"/>
		<path class="st0" d="M139.5,119L139.5,119c4.9,0,8.8-3.9,8.8-8.8V46.4c0-4.9-3.9-8.8-8.8-8.8h0c-4.9,0-8.8,3.9-8.8,8.8v63.8
			C130.6,115.1,134.6,119,139.5,119z"/>
		<path class="st0" d="M218.4,115.6L218.4,115.6c4.9,0.3,9.1-3.4,9.4-8.2l4.2-65.1c0.3-4.9-3.4-9.1-8.2-9.4l0,0
			c-4.9-0.3-9.1,3.4-9.4,8.2l-4.2,65.1C209.9,111.1,213.5,115.3,218.4,115.6z"/>
		<path class="st0" d="M178.2,118L178.2,118c4.9,0.3,9.1-3.4,9.4-8.2l4-61.8c0.3-4.9-3.4-9.1-8.2-9.4h0c-4.9-0.3-9.1,3.4-9.4,8.2
			l-4,61.8C169.6,113.4,173.3,117.6,178.2,118z"/>
		<circle class="st0" cx="99.7" cy="182.9" r="14.8"/>
		<circle class="st0" cx="199.4" cy="182.9" r="14.8"/>
		<path class="st0" d="M83.9,156.9L66.6,10.1C66,4.8,61.2,1,55.9,1.6l0,0c-5.3,0.6-9,5.4-8.4,10.7l17.3,146.9
			c0.6,5.3,5.4,9,10.7,8.4h0C80.8,167,84.5,162.2,83.9,156.9z"/>
		<path class="st0" d="M219.8,99.4L77.4,116.2c-5.3,0.6-9.1,5.4-8.5,10.8v0c0.6,5.3,5.4,9.1,10.8,8.5L222,118.7
			c5.3-0.6,9.1-5.4,8.5-10.8v0C229.9,102.6,225.1,98.8,219.8,99.4z"/>
		<path class="st0" d="M226.2,148.7H73.3c-5.4,0-9.7,4.3-9.7,9.7v0c0,5.4,4.3,9.7,9.7,9.7h152.9c5.4,0,9.7-4.3,9.7-9.7v0
			C235.9,153,231.5,148.7,226.2,148.7z"/>
		<path class="st0" d="M227.7,23.2H71.8c-5.4,0-9.7,4.3-9.7,9.7v0c0,5.4,4.3,9.7,9.7,9.7h155.9c5.4,0,9.7-4.3,9.7-9.7v0
			C237.4,27.6,233,23.2,227.7,23.2z"/>
	</g>
</g>
</svg>
