<?xml version="1.0" encoding="utf-8"?>
<!-- Generator: Adobe Illustrator 23.0.3, SVG Export Plug-In . SVG Version: 6.00 Build 0)  -->
<svg version="1.1" id="Layer_1" xmlns="http://www.w3.org/2000/svg" xmlns:xlink="http://www.w3.org/1999/xlink" x="0px" y="0px"
	 viewBox="0 0 247.4 198.7" style="enable-background:new 0 0 247.4 198.7;" xml:space="preserve">
<style type="text/css">
	.st0{clip-path:url(#SVGID_2_);}
	.st1{clip-path:url(#SVGID_4_);fill:#FFFFFF;}
	.st2{clip-path:url(#SVGID_6_);fill:none;stroke:#000000;stroke-miterlimit:10;}
	.st3{clip-path:url(#SVGID_8_);fill:#FFFFFF;}
	.st4{clip-path:url(#SVGID_10_);fill:none;stroke:#000000;stroke-miterlimit:10;}
	.st5{clip-path:url(#SVGID_12_);fill:#FFFFFF;stroke:#FFFFFF;stroke-miterlimit:10;}
	.st6{clip-path:url(#SVGID_14_);fill:none;stroke:#000000;stroke-miterlimit:10;}
	.st7{clip-path:url(#SVGID_16_);fill:#FFFFFF;}
	.st8{clip-path:url(#SVGID_18_);fill:none;stroke:#000000;stroke-miterlimit:10;}
	.st9{clip-path:url(#SVGID_20_);fill:#FFFFFF;}
	.st10{clip-path:url(#SVGID_22_);fill:none;stroke:#000000;stroke-miterlimit:10;}
	.st11{clip-path:url(#SVGID_24_);fill:#F9F9F9;}
	.st12{clip-path:url(#SVGID_26_);fill:none;stroke:#000000;stroke-miterlimit:10;}
	.st13{clip-path:url(#SVGID_28_);fill:#FFFFFF;}
	.st14{clip-path:url(#SVGID_30_);fill:none;stroke:#000000;stroke-miterlimit:10;}
	.st15{clip-path:url(#SVGID_32_);fill:#FFFFFF;stroke:#000000;stroke-miterlimit:10;}
	.st16{clip-path:url(#SVGID_34_);fill:none;}
	.st17{clip-path:url(#SVGID_36_);fill:#FCFCFC;}
	.st18{clip-path:url(#SVGID_38_);fill:none;stroke:#000000;stroke-miterlimit:10;}
	.st19{clip-path:url(#SVGID_40_);fill:#FFFFFF;}
	.st20{clip-path:url(#SVGID_42_);fill:none;stroke:#000000;stroke-miterlimit:10;}
	.st21{clip-path:url(#SVGID_44_);fill:#FFFFFF;}
	.st22{clip-path:url(#SVGID_46_);fill:none;stroke:#000000;stroke-miterlimit:10;}
</style>
<g id="Artwork_4_1_">
	<g>
		<g>
			<defs>
				<rect id="SVGID_1_" width="247.4" height="198.7"/>
			</defs>
			<clipPath id="SVGID_2_">
				<use xlink:href="#SVGID_1_"  style="overflow:visible;"/>
			</clipPath>
			<g class="st0">
				<g>
					<defs>
						<rect id="SVGID_3_" width="247.4" height="198.7"/>
					</defs>
					<use xlink:href="#SVGID_3_"  style="overflow:visible;fill:#FFFFFF;"/>
					<clipPath id="SVGID_4_">
						<use xlink:href="#SVGID_3_"  style="overflow:visible;"/>
					</clipPath>
					<path class="st1" d="M74.5,164.7L74.5,164.7c-5.4,0.6-10.3-3.3-10.8-8.7L48.2,11.4C47.6,6,51.6,1.1,57,0.6
						C62.4,0,67.2,3.9,67.8,9.3l15.4,144.6C83.8,159.3,79.9,164.1,74.5,164.7"/>
				</g>
				<g>
					<defs>
						<rect id="SVGID_5_" width="247.4" height="198.7"/>
					</defs>
					<clipPath id="SVGID_6_">
						<use xlink:href="#SVGID_5_"  style="overflow:visible;"/>
					</clipPath>
					<path class="st2" d="M74.5,164.7L74.5,164.7c-5.4,0.6-10.3-3.3-10.8-8.7L48.2,11.4C47.6,6,51.6,1.1,57,0.6
						C62.4,0,67.2,3.9,67.8,9.3l15.4,144.6C83.8,159.3,79.9,164.1,74.5,164.7z"/>
				</g>
				<g>
					<defs>
						<rect id="SVGID_7_" width="247.4" height="198.7"/>
					</defs>
					<clipPath id="SVGID_8_">
						<use xlink:href="#SVGID_7_"  style="overflow:visible;"/>
					</clipPath>
					<path class="st3" d="M10.2,20H56c5.4,0,9.7-4.3,9.7-9.7S61.4,0.6,56,0.6H10.2c-5.4,0-9.7,4.3-9.7,9.7S4.8,20,10.2,20"/>
				</g>
				<g>
					<defs>
						<rect id="SVGID_9_" width="247.4" height="198.7"/>
					</defs>
					<clipPath id="SVGID_10_">
						<use xlink:href="#SVGID_9_"  style="overflow:visible;"/>
					</clipPath>
					<path class="st4" d="M10.2,20H56c5.4,0,9.7-4.3,9.7-9.7S61.4,0.6,56,0.6H10.2c-5.4,0-9.7,4.3-9.7,9.7S4.8,20,10.2,20z"/>
				</g>
				<g>
					<defs>
						<rect id="SVGID_11_" width="247.4" height="198.7"/>
					</defs>
					<clipPath id="SVGID_12_">
						<use xlink:href="#SVGID_11_"  style="overflow:visible;"/>
					</clipPath>
					<path class="st5" d="M68.5,49.5h168.7c5.4,0,9.7-4.3,9.7-9.7s-4.3-9.7-9.7-9.7H68.5c-5.4,0-9.7,4.3-9.7,9.7
						S63.2,49.5,68.5,49.5"/>
				</g>
				<g>
					<defs>
						<rect id="SVGID_13_" width="247.4" height="198.7"/>
					</defs>
					<clipPath id="SVGID_14_">
						<use xlink:href="#SVGID_13_"  style="overflow:visible;"/>
					</clipPath>
					<path class="st6" d="M68.5,49.5h168.7c5.4,0,9.7-4.3,9.7-9.7s-4.3-9.7-9.7-9.7H68.5c-5.4,0-9.7,4.3-9.7,9.7
						S63.2,49.5,68.5,49.5z"/>
				</g>
				<g>
					<defs>
						<rect id="SVGID_15_" width="247.4" height="198.7"/>
					</defs>
					<clipPath id="SVGID_16_">
						<use xlink:href="#SVGID_15_"  style="overflow:visible;"/>
					</clipPath>
					<path class="st7" d="M73.4,165.1h153.1c5.4,0,9.7-4.3,9.7-9.7v-0.7c0-5.4-4.3-9.7-9.7-9.7H73.4c-5.4,0-9.7,4.3-9.7,9.7v0.7
						C63.7,160.8,68,165.1,73.4,165.1"/>
				</g>
				<g>
					<defs>
						<rect id="SVGID_17_" width="247.4" height="198.7"/>
					</defs>
					<clipPath id="SVGID_18_">
						<use xlink:href="#SVGID_17_"  style="overflow:visible;"/>
					</clipPath>
					<path class="st8" d="M73.4,165.1h153.1c5.4,0,9.7-4.3,9.7-9.7v-0.7c0-5.4-4.3-9.7-9.7-9.7H73.4c-5.4,0-9.7,4.3-9.7,9.7v0.7
						C63.7,160.8,68,165.1,73.4,165.1z"/>
				</g>
				<g>
					<defs>
						<rect id="SVGID_19_" width="247.4" height="198.7"/>
					</defs>
					<clipPath id="SVGID_20_">
						<use xlink:href="#SVGID_19_"  style="overflow:visible;"/>
					</clipPath>
					<path class="st9" d="M81,132.3l146.9-18.6c5.3-0.7,9.1-5.5,8.4-10.8c-0.7-5.3-5.5-9.1-10.8-8.4l-147,18.6
						c-5.3,0.7-9.1,5.5-8.4,10.8C70.8,129.2,75.6,133,81,132.3"/>
				</g>
				<g>
					<defs>
						<rect id="SVGID_21_" width="247.4" height="198.7"/>
					</defs>
					<clipPath id="SVGID_22_">
						<use xlink:href="#SVGID_21_"  style="overflow:visible;"/>
					</clipPath>
					<path class="st10" d="M81,132.3l146.9-18.6c5.3-0.7,9.1-5.5,8.4-10.8c-0.7-5.3-5.5-9.1-10.8-8.4l-147,18.6
						c-5.3,0.7-9.1,5.5-8.4,10.8C70.8,129.2,75.6,133,81,132.3z"/>
				</g>
				<g>
					<defs>
						<rect id="SVGID_23_" width="247.4" height="198.7"/>
					</defs>
					<clipPath id="SVGID_24_">
						<use xlink:href="#SVGID_23_"  style="overflow:visible;"/>
					</clipPath>
					<path class="st11" d="M229.3,113.2l-5-0.7c-3.8-0.5-6.5-4.1-5.9-7.9l9.6-67.2c0.5-3.8,4.1-6.5,7.9-5.9l5,0.7
						c3.8,0.5,6.5,4.1,5.9,7.9l-9.6,67.2C236.7,111.1,233.2,113.7,229.3,113.2"/>
				</g>
				<g>
					<defs>
						<rect id="SVGID_25_" width="247.4" height="198.7"/>
					</defs>
					<clipPath id="SVGID_26_">
						<use xlink:href="#SVGID_25_"  style="overflow:visible;"/>
					</clipPath>
					<path class="st12" d="M229.3,113.2l-5-0.7c-3.8-0.5-6.5-4.1-5.9-7.9l9.6-67.2c0.5-3.8,4.1-6.5,7.9-5.9l5,0.7
						c3.8,0.5,6.5,4.1,5.9,7.9l-9.6,67.2C236.7,111.1,233.2,113.7,229.3,113.2z"/>
				</g>
				<g>
					<defs>
						<rect id="SVGID_27_" width="247.4" height="198.7"/>
					</defs>
					<clipPath id="SVGID_28_">
						<use xlink:href="#SVGID_27_"  style="overflow:visible;"/>
					</clipPath>
					<path class="st13" d="M188.4,116l-5-0.7c-3.8-0.5-6.5-4.1-5.9-7.9l9.6-67.2c0.5-3.8,4.1-6.5,7.9-5.9l5,0.7
						c3.8,0.5,6.5,4.1,5.9,7.9l-9.6,67.2C195.7,113.9,192.2,116.6,188.4,116"/>
				</g>
				<g>
					<defs>
						<rect id="SVGID_29_" width="247.4" height="198.7"/>
					</defs>
					<clipPath id="SVGID_30_">
						<use xlink:href="#SVGID_29_"  style="overflow:visible;"/>
					</clipPath>
					<path class="st14" d="M188.4,116l-5-0.7c-3.8-0.5-6.5-4.1-5.9-7.9l9.6-67.2c0.5-3.8,4.1-6.5,7.9-5.9l5,0.7
						c3.8,0.5,6.5,4.1,5.9,7.9l-9.6,67.2C195.7,113.9,192.2,116.6,188.4,116z"/>
				</g>
				<g>
					<defs>
						<rect id="SVGID_31_" width="247.4" height="198.7"/>
					</defs>
					<clipPath id="SVGID_32_">
						<use xlink:href="#SVGID_31_"  style="overflow:visible;"/>
					</clipPath>
					<path class="st15" d="M152.4,118.1h-5c-3.9,0-7-3.1-7-7V43.2c0-3.9,3.1-7,7-7h5c3.9,0,7,3.1,7,7v67.9
						C159.4,115,156.3,118.1,152.4,118.1"/>
				</g>
				<g>
					<defs>
						<rect id="SVGID_33_" width="247.4" height="198.7"/>
					</defs>
					<clipPath id="SVGID_34_">
						<use xlink:href="#SVGID_33_"  style="overflow:visible;"/>
					</clipPath>
					<path class="st16" d="M152.4,118.1h-5c-3.9,0-7-3.1-7-7V43.2c0-3.9,3.1-7,7-7h5c3.9,0,7,3.1,7,7v67.9
						C159.4,115,156.3,118.1,152.4,118.1z"/>
				</g>
				<g>
					<defs>
						<rect id="SVGID_35_" width="247.4" height="198.7"/>
					</defs>
					<clipPath id="SVGID_36_">
						<use xlink:href="#SVGID_35_"  style="overflow:visible;"/>
					</clipPath>
					<path class="st17" d="M113.3,117.3l-5,0.7c-3.8,0.5-7.4-2.1-7.9-5.9l-9.5-67.2C90.3,41,93,37.5,96.8,37l5-0.7
						c3.8-0.5,7.4,2.1,7.9,5.9l9.5,67.2C119.8,113.2,117.1,116.8,113.3,117.3"/>
				</g>
				<g>
					<defs>
						<rect id="SVGID_37_" width="247.4" height="198.7"/>
					</defs>
					<clipPath id="SVGID_38_">
						<use xlink:href="#SVGID_37_"  style="overflow:visible;"/>
					</clipPath>
					<path class="st18" d="M113.3,117.3l-5,0.7c-3.8,0.5-7.4-2.1-7.9-5.9l-9.5-67.2C90.3,41,93,37.5,96.8,37l5-0.7
						c3.8-0.5,7.4,2.1,7.9,5.9l9.5,67.2C119.8,113.2,117.1,116.8,113.3,117.3z"/>
				</g>
				<g>
					<defs>
						<rect id="SVGID_39_" width="247.4" height="198.7"/>
					</defs>
					<clipPath id="SVGID_40_">
						<use xlink:href="#SVGID_39_"  style="overflow:visible;"/>
					</clipPath>
					<path class="st19" d="M105,184.1c0,7.8-6.3,14.1-14.1,14.1s-14.1-6.3-14.1-14.1S83.1,170,90.9,170S105,176.4,105,184.1"/>
				</g>
				<g>
					<defs>
						<rect id="SVGID_41_" width="247.4" height="198.7"/>
					</defs>
					<clipPath id="SVGID_42_">
						<use xlink:href="#SVGID_41_"  style="overflow:visible;"/>
					</clipPath>
					<circle class="st20" cx="90.9" cy="184.1" r="14.1"/>
				</g>
				<g>
					<defs>
						<rect id="SVGID_43_" width="247.4" height="198.7"/>
					</defs>
					<clipPath id="SVGID_44_">
						<use xlink:href="#SVGID_43_"  style="overflow:visible;"/>
					</clipPath>
					<path class="st21" d="M221,183.6c0-8.1-6.6-14.7-14.7-14.7c-8.1,0-14.7,6.6-14.7,14.7c0,8.1,6.6,14.7,14.7,14.7
						C214.5,198.2,221,191.7,221,183.6"/>
				</g>
				<g>
					<defs>
						<rect id="SVGID_45_" width="247.4" height="198.7"/>
					</defs>
					<clipPath id="SVGID_46_">
						<use xlink:href="#SVGID_45_"  style="overflow:visible;"/>
					</clipPath>
					<path class="st22" d="M221,183.6c0-8.1-6.6-14.7-14.7-14.7c-8.1,0-14.7,6.6-14.7,14.7c0,8.1,6.6,14.7,14.7,14.7
						C214.5,198.2,221,191.7,221,183.6z"/>
				</g>
			</g>
		</g>
	</g>
</g>
</svg>
