<?xml version="1.0" encoding="utf-8"?>
<!-- Generator: Adobe Illustrator 23.0.1, SVG Export Plug-In . SVG Version: 6.00 Build 0)  -->
<svg version="1.1" id="Layer_1" xmlns="http://www.w3.org/2000/svg" xmlns:xlink="http://www.w3.org/1999/xlink" x="0px" y="0px"
	 viewBox="0 0 259.1 381" style="enable-background:new 0 0 259.1 381;" xml:space="preserve">
<style type="text/css">
	.st0{clip-path:url(#SVGID_2_);}
	.st1{clip-path:url(#SVGID_4_);fill:#414042;}
	.st2{clip-path:url(#SVGID_6_);fill:none;stroke:#000000;stroke-miterlimit:10;}
	.st3{clip-path:url(#SVGID_8_);fill:#414042;}
	.st4{clip-path:url(#SVGID_10_);fill:none;stroke:#000000;stroke-miterlimit:10;}
	.st5{clip-path:url(#SVGID_12_);fill:#D1D3D4;}
	.st6{clip-path:url(#SVGID_14_);fill:none;stroke:#000000;stroke-miterlimit:10;}
	.st7{clip-path:url(#SVGID_16_);fill:#FFFFFF;}
	.st8{clip-path:url(#SVGID_18_);fill:none;stroke:#000000;stroke-miterlimit:10;}
	.st9{clip-path:url(#SVGID_20_);fill:none;stroke:#000000;stroke-miterlimit:10;}
	.st10{clip-path:url(#SVGID_22_);fill:none;stroke:#000000;stroke-miterlimit:10;}
	.st11{clip-path:url(#SVGID_24_);fill:none;stroke:#000000;stroke-miterlimit:10;}
	.st12{clip-path:url(#SVGID_26_);fill:none;stroke:#000000;stroke-miterlimit:10;}
	.st13{clip-path:url(#SVGID_28_);fill:#E6E7E8;}
	.st14{clip-path:url(#SVGID_30_);fill:none;stroke:#000000;stroke-miterlimit:10;}
	.st15{clip-path:url(#SVGID_32_);fill:#E6E7E8;}
	.st16{clip-path:url(#SVGID_34_);fill:none;stroke:#000000;stroke-miterlimit:10;}
	.st17{clip-path:url(#SVGID_36_);fill:none;stroke:#000000;stroke-miterlimit:10;}
	.st18{clip-path:url(#SVGID_38_);fill:#C49A6C;}
	.st19{clip-path:url(#SVGID_40_);fill:none;stroke:#000000;stroke-miterlimit:10;}
	.st20{clip-path:url(#SVGID_42_);fill:#E6E7E8;}
	.st21{clip-path:url(#SVGID_44_);fill:none;stroke:#000000;stroke-miterlimit:10;}
	.st22{clip-path:url(#SVGID_46_);fill:#E6E7E8;}
	.st23{clip-path:url(#SVGID_48_);fill:none;stroke:#E6E7E8;stroke-miterlimit:10;}
	.st24{clip-path:url(#SVGID_50_);}
	.st25{font-family:'MyriadPro-BoldCondIt';}
	.st26{font-size:51.8358px;}
	.st27{fill:#C49A6C;}
</style>
<g id="Artwork_2_1_">
	<g>
		<g>
			<g>
				<defs>
					<rect id="SVGID_1_" x="-12" y="0.5" width="302" height="380.5"/>
				</defs>
				<clipPath id="SVGID_2_">
					<use xlink:href="#SVGID_1_"  style="overflow:visible;"/>
				</clipPath>
				<g class="st0">
					<g>
						<g>
							<defs>
								<rect id="SVGID_3_" x="-12" y="0.5" width="302" height="380.5"/>
							</defs>
							<clipPath id="SVGID_4_">
								<use xlink:href="#SVGID_3_"  style="overflow:visible;"/>
							</clipPath>
							<path class="st1" d="M246.3,72.3H13.1c-6.9,0-12.6-5.5-12.6-12.4v-28c0-6.8,5.6-12.4,12.6-12.4h233.2
								c6.9,0,12.6,5.5,12.6,12.4v28C258.8,66.7,253.3,72.3,246.3,72.3"/>
						</g>
					</g>
					<g>
						<g>
							<defs>
								<rect id="SVGID_5_" x="-12" y="0.5" width="302" height="380.5"/>
							</defs>
							<clipPath id="SVGID_6_">
								<use xlink:href="#SVGID_5_"  style="overflow:visible;"/>
							</clipPath>
							<path class="st2" d="M246.3,72.3H13.1c-6.9,0-12.6-5.5-12.6-12.4v-28c0-6.8,5.6-12.4,12.6-12.4h233.2
								c6.9,0,12.6,5.5,12.6,12.4v28C258.8,66.7,253.3,72.3,246.3,72.3z"/>
						</g>
					</g>
					<g>
						<g>
							<defs>
								<rect id="SVGID_7_" x="-12" y="0.5" width="302" height="380.5"/>
							</defs>
							<clipPath id="SVGID_8_">
								<use xlink:href="#SVGID_7_"  style="overflow:visible;"/>
							</clipPath>
							<path class="st3" d="M233.4,20H26.1c-2,0-3.5-1.5-3.5-3.5V4.7c0-1.9,1.5-3.5,3.5-3.5h207.3c2,0,3.5,1.5,3.5,3.5v11.9
								C236.9,18.4,235.3,20,233.4,20"/>
						</g>
					</g>
					<g>
						<g>
							<defs>
								<rect id="SVGID_9_" x="-12" y="0.5" width="302" height="380.5"/>
							</defs>
							<clipPath id="SVGID_10_">
								<use xlink:href="#SVGID_9_"  style="overflow:visible;"/>
							</clipPath>
							<path class="st4" d="M233.4,20H26.1c-2,0-3.5-1.5-3.5-3.5V4.7c0-1.9,1.5-3.5,3.5-3.5h207.3c2,0,3.5,1.5,3.5,3.5v11.9
								C236.9,18.4,235.3,20,233.4,20z"/>
						</g>
					</g>
					<g>
						<g>
							<defs>
								<rect id="SVGID_11_" x="-12" y="0.5" width="302" height="380.5"/>
							</defs>
							<clipPath id="SVGID_12_">
								<use xlink:href="#SVGID_11_"  style="overflow:visible;"/>
							</clipPath>
							<path class="st5" d="M29.6,285.4"/>
						</g>
					</g>
					<g>
						<g>
							<defs>
								<rect id="SVGID_13_" x="-12" y="0.5" width="302" height="380.5"/>
							</defs>
							<clipPath id="SVGID_14_">
								<use xlink:href="#SVGID_13_"  style="overflow:visible;"/>
							</clipPath>
							<line class="st6" x1="29.6" y1="285.4" x2="29.6" y2="285.4"/>
						</g>
					</g>
					<g>
						<g>
							<defs>
								<rect id="SVGID_15_" x="-12" y="0.5" width="302" height="380.5"/>
							</defs>
							<clipPath id="SVGID_16_">
								<use xlink:href="#SVGID_15_"  style="overflow:visible;"/>
							</clipPath>
							<path class="st7" d="M-12,232.5"/>
						</g>
					</g>
					<g>
						<g>
							<defs>
								<rect id="SVGID_17_" x="-12" y="0.5" width="302" height="380.5"/>
							</defs>
							<clipPath id="SVGID_18_">
								<use xlink:href="#SVGID_17_"  style="overflow:visible;"/>
							</clipPath>
							<line class="st8" x1="-12" y1="232.5" x2="-12" y2="232.5"/>
						</g>
					</g>
					<g>
						<g>
							<defs>
								<rect id="SVGID_19_" x="-12" y="0.5" width="302" height="380.5"/>
							</defs>
							<clipPath id="SVGID_20_">
								<use xlink:href="#SVGID_19_"  style="overflow:visible;"/>
							</clipPath>
							<line class="st9" x1="15.1" y1="116.4" x2="14.3" y2="101.2"/>
						</g>
					</g>
					<g>
						<g>
							<defs>
								<rect id="SVGID_21_" x="-12" y="0.5" width="302" height="380.5"/>
							</defs>
							<clipPath id="SVGID_22_">
								<use xlink:href="#SVGID_21_"  style="overflow:visible;"/>
							</clipPath>
							<line class="st10" x1="235.1" y1="264.8" x2="245.2" y2="100"/>
						</g>
					</g>
					<g>
						<g>
							<defs>
								<rect id="SVGID_23_" x="-12" y="0.5" width="302" height="380.5"/>
							</defs>
							<clipPath id="SVGID_24_">
								<use xlink:href="#SVGID_23_"  style="overflow:visible;"/>
							</clipPath>
							<line class="st11" x1="245.2" y1="100.1" x2="244.6" y2="100.1"/>
						</g>
					</g>
					<g>
						<g>
							<defs>
								<rect id="SVGID_25_" x="-12" y="0.5" width="302" height="380.5"/>
							</defs>
							<clipPath id="SVGID_26_">
								<use xlink:href="#SVGID_25_"  style="overflow:visible;"/>
							</clipPath>
							<line class="st12" x1="14.3" y1="101.2" x2="14.3" y2="101.2"/>
						</g>
					</g>
					<g>
						<g>
							<defs>
								<rect id="SVGID_27_" x="-12" y="0.5" width="302" height="380.5"/>
							</defs>
							<clipPath id="SVGID_28_">
								<use xlink:href="#SVGID_27_"  style="overflow:visible;"/>
							</clipPath>
							<path class="st13" d="M230.7,342.2c0,21.2-45.2,38.2-101,38.2s-101-17.2-101-38.2"/>
						</g>
					</g>
					<g>
						<g>
							<defs>
								<rect id="SVGID_29_" x="-12" y="0.5" width="302" height="380.5"/>
							</defs>
							<clipPath id="SVGID_30_">
								<use xlink:href="#SVGID_29_"  style="overflow:visible;"/>
							</clipPath>
							<path class="st14" d="M230.7,342.2c0,21.2-45.2,38.2-101,38.2s-101-17.2-101-38.2"/>
						</g>
					</g>
					<g>
						<g>
							<defs>
								<rect id="SVGID_31_" x="-12" y="0.5" width="302" height="380.5"/>
							</defs>
							<clipPath id="SVGID_32_">
								<use xlink:href="#SVGID_31_"  style="overflow:visible;"/>
							</clipPath>
							<polygon class="st15" points="235.4,264.8 230.7,345.5 28.7,345.5 15.5,116.4 24.3,266.1 							"/>
						</g>
					</g>
					<g>
						<g>
							<defs>
								<rect id="SVGID_33_" x="-12" y="0.5" width="302" height="380.5"/>
							</defs>
							<clipPath id="SVGID_34_">
								<use xlink:href="#SVGID_33_"  style="overflow:visible;"/>
							</clipPath>
							<polygon class="st16" points="235.4,264.8 230.7,345.5 28.7,345.5 15.5,116.4 24.3,266.1 							"/>
						</g>
					</g>
					<g>
						<g>
							<defs>
								<rect id="SVGID_35_" x="-12" y="0.5" width="302" height="380.5"/>
							</defs>
							<clipPath id="SVGID_36_">
								<use xlink:href="#SVGID_35_"  style="overflow:visible;"/>
							</clipPath>
							<line class="st17" x1="246.6" y1="72" x2="246.6" y2="72.3"/>
						</g>
					</g>
					<g>
						<g>
							<defs>
								<rect id="SVGID_37_" x="-12" y="0.5" width="302" height="380.5"/>
							</defs>
							<clipPath id="SVGID_38_">
								<use xlink:href="#SVGID_37_"  style="overflow:visible;"/>
							</clipPath>
							<polygon class="st18" points="245,100.1 235.4,264.8 24.3,266.1 15.5,116.4 14.6,101.2 							"/>
						</g>
					</g>
					<g>
						<g>
							<defs>
								<rect id="SVGID_39_" x="-12" y="0.5" width="302" height="380.5"/>
							</defs>
							<clipPath id="SVGID_40_">
								<use xlink:href="#SVGID_39_"  style="overflow:visible;"/>
							</clipPath>
							<polygon class="st19" points="245,100.1 235.4,264.8 24.3,266.1 15.5,116.4 14.6,101.2 							"/>
						</g>
					</g>
					<g>
						<g>
							<defs>
								<rect id="SVGID_41_" x="-12" y="0.5" width="302" height="380.5"/>
							</defs>
							<clipPath id="SVGID_42_">
								<use xlink:href="#SVGID_41_"  style="overflow:visible;"/>
							</clipPath>
							<polygon class="st20" points="246.6,72.3 245,100.1 14.6,101.2 12.8,71.7 							"/>
						</g>
					</g>
					<g>
						<g>
							<defs>
								<rect id="SVGID_43_" x="-12" y="0.5" width="302" height="380.5"/>
							</defs>
							<clipPath id="SVGID_44_">
								<use xlink:href="#SVGID_43_"  style="overflow:visible;"/>
							</clipPath>
							<polygon class="st21" points="246.6,72.3 245,100.1 14.6,101.2 12.8,71.7 							"/>
						</g>
					</g>
					<g>
						<g>
							<defs>
								<rect id="SVGID_45_" x="-12" y="0.5" width="302" height="380.5"/>
							</defs>
							<clipPath id="SVGID_46_">
								<use xlink:href="#SVGID_45_"  style="overflow:visible;"/>
							</clipPath>
							<path class="st22" d="M222.2,323.1H37.3c-3.8,0-7,3.1-7,6.9v15.1c0,3.8,3.2,6.9,7,6.9h184.7c3.8,0,7-3.1,7-6.9V330
								C229.2,326.1,226,323.1,222.2,323.1"/>
						</g>
					</g>
					<g>
						<g>
							<defs>
								<rect id="SVGID_47_" x="-12" y="0.5" width="302" height="380.5"/>
							</defs>
							<clipPath id="SVGID_48_">
								<use xlink:href="#SVGID_47_"  style="overflow:visible;"/>
							</clipPath>
							<path class="st23" d="M222.2,323.1H37.3c-3.8,0-7,3.1-7,6.9v15.1c0,3.8,3.2,6.9,7,6.9h184.7c3.8,0,7-3.1,7-6.9V330
								C229.2,326.1,226,323.1,222.2,323.1z"/>
						</g>
					</g>
				</g>
			</g>
		</g>
		<g>
			<g>
				<defs>
					<rect id="SVGID_49_" x="-12" y="0.5" width="302" height="380.5"/>
				</defs>
				<clipPath id="SVGID_50_">
					<use xlink:href="#SVGID_49_"  style="overflow:visible;"/>
				</clipPath>
				<g class="st24">
					<text transform="matrix(1.0129 0 0 1 101.9121 188.8301)" class="st25 st26">KH</text>
				</g>
			</g>
		</g>
	</g>
</g>
<rect x="92.4" y="143.2" class="st27" width="110.4" height="67"/>
<g>
	<g>
		<path d="M77.4,154.2h21.8v2.7c-5.2,0.6-6,1-6,7.1V176c1.5-0.4,3.2-1.6,5.6-3.8c4.9-4.8,8.1-8.7,10.2-11.4c1.7-2.2,1.3-3.3-2-3.7
			l-1.4-0.1v-2.7h18.9v2.7c-5,0.6-7.6,1-12.2,5.9c-2.8,3-6.3,6.6-9.5,10c4.5,6.3,10.2,14,15.7,21c2.7,3.5,3.6,4,7.3,4.5v2.7h-14.3
			c-3-4.1-9.4-12.8-14.5-20.1c-1.5-2.2-2.7-2.6-3.8-2.4v12.7c0,6.1,0.5,6.3,6,7.1v2.7H77.4v-2.7c5.4-0.6,6.1-0.9,6.1-7.1v-27.4
			c0-6-0.7-6.6-6.1-7.1V154.2z"/>
		<path d="M178.4,156.8c-5.6,0.6-6.1,1-6.1,7v27.6c0,6,0.6,6.4,6.1,6.9v2.7h-22.2v-2.7c5.7-0.7,6.1-0.9,6.1-6.9v-13.5h-19.4v13.5
			c0,6,0.6,6.3,6,6.9v2.7h-22.2v-2.7c5.3-0.6,6.1-0.9,6.1-6.9v-27.6c0-6-0.6-6.6-6.1-7v-2.7h22.2v2.7c-5.5,0.5-6,1-6,7v10.3h19.4
			v-10.3c0-6-0.7-6.4-6.1-7v-2.7h22.2V156.8z"/>
	</g>
</g>
</svg>
