<?xml version="1.0" encoding="utf-8"?>
<!-- Generator: Adobe Illustrator 23.0.1, SVG Export Plug-In . SVG Version: 6.00 Build 0)  -->
<svg version="1.1" id="Layer_1" xmlns="http://www.w3.org/2000/svg" xmlns:xlink="http://www.w3.org/1999/xlink" x="0px" y="0px"
	 viewBox="0 0 271.1 183.3" style="enable-background:new 0 0 271.1 183.3;" xml:space="preserve">
<style type="text/css">
	.st0{clip-path:url(#SVGID_2_);fill:#FFFFFF;}
	.st1{clip-path:url(#SVGID_2_);}
	.st2{clip-path:url(#SVGID_4_);fill:none;stroke:#000000;stroke-width:8;stroke-miterlimit:10;}
	.st3{clip-path:url(#SVGID_6_);fill:none;stroke:#000000;stroke-width:8;stroke-miterlimit:10;}
	.st4{clip-path:url(#SVGID_2_);fill:none;stroke:#000000;stroke-width:6;stroke-miterlimit:10;}
</style>
<g id="Artwork_7_1_">
	<g>
		<defs>
			<rect id="SVGID_1_" width="271.1" height="183.3"/>
		</defs>
		<clipPath id="SVGID_2_">
			<use xlink:href="#SVGID_1_"  style="overflow:visible;"/>
		</clipPath>
		<polygon class="st0" points="178.7,28.5 264.2,179.3 93.2,179.3 		"/>
		<g class="st1">
			<defs>
				<rect id="SVGID_3_" width="271.1" height="183.3"/>
			</defs>
			<clipPath id="SVGID_4_">
				<use xlink:href="#SVGID_3_"  style="overflow:visible;"/>
			</clipPath>
			<polygon class="st2" points="178.7,28.5 264.2,179.3 93.2,179.3 			"/>
		</g>
		<polygon class="st0" points="98.4,8.5 6.7,179.3 190.1,179.3 		"/>
		<g class="st1">
			<defs>
				<rect id="SVGID_5_" width="271.1" height="183.3"/>
			</defs>
			<clipPath id="SVGID_6_">
				<use xlink:href="#SVGID_5_"  style="overflow:visible;"/>
			</clipPath>
			<polygon class="st3" points="98.4,8.5 6.7,179.3 190.1,179.3 			"/>
		</g>
		<line class="st4" x1="150.8" y1="72.1" x2="165.4" y2="87.9"/>
		<line class="st4" x1="161.4" y1="87.4" x2="181.3" y2="69.1"/>
		<line class="st4" x1="177" y1="69.2" x2="186.6" y2="78.8"/>
		<line class="st4" x1="182.5" y1="78.4" x2="199" y2="61.9"/>
		<line class="st4" x1="60.2" y1="84.6" x2="80.7" y2="103.9"/>
		<line class="st4" x1="76.5" y1="103.8" x2="101" y2="78.6"/>
		<line class="st4" x1="96.9" y1="79.1" x2="110.2" y2="90.9"/>
		<line class="st4" x1="107.3" y1="89.5" x2="127.5" y2="67.3"/>
	</g>
</g>
</svg>
