<?xml version="1.0" encoding="utf-8"?>
<!-- Generator: Adobe Illustrator 23.0.1, SVG Export Plug-In . SVG Version: 6.00 Build 0)  -->
<svg version="1.1" id="Layer_1" xmlns="http://www.w3.org/2000/svg" xmlns:xlink="http://www.w3.org/1999/xlink" x="0px" y="0px"
	 viewBox="0 0 212.6 208.4" style="enable-background:new 0 0 212.6 208.4;" xml:space="preserve">
<style type="text/css">
	.st0{clip-path:url(#SVGID_2_);}
	.st1{clip-path:url(#SVGID_4_);}
	.st2{clip-path:url(#SVGID_6_);fill:none;stroke:#000000;stroke-miterlimit:10;}
	.st3{clip-path:url(#SVGID_8_);}
	.st4{clip-path:url(#SVGID_10_);fill:none;stroke:#000000;stroke-miterlimit:10;}
	.st5{clip-path:url(#SVGID_12_);}
	.st6{clip-path:url(#SVGID_14_);fill:none;stroke:#000000;stroke-miterlimit:10;}
	.st7{clip-path:url(#SVGID_16_);}
	.st8{clip-path:url(#SVGID_18_);fill:none;stroke:#FFFFFF;stroke-miterlimit:10;}
	.st9{clip-path:url(#SVGID_20_);}
	.st10{clip-path:url(#SVGID_22_);fill:none;stroke:#FFFFFF;stroke-miterlimit:10;}
	.st11{clip-path:url(#SVGID_24_);}
	.st12{clip-path:url(#SVGID_26_);fill:none;stroke:#FFFFFF;stroke-miterlimit:10;}
	.st13{clip-path:url(#SVGID_28_);}
	.st14{clip-path:url(#SVGID_30_);fill:#FFFFFF;}
	.st15{clip-path:url(#SVGID_32_);fill:none;stroke:#FFFFFF;stroke-miterlimit:10;}
	.st16{clip-path:url(#SVGID_34_);fill:#FFFFFF;}
	.st17{clip-path:url(#SVGID_36_);fill:none;stroke:#FFFFFF;stroke-miterlimit:10;}
	.st18{clip-path:url(#SVGID_38_);fill:none;stroke:#000000;stroke-width:6;stroke-miterlimit:10;}
	.st19{clip-path:url(#SVGID_40_);fill:#FFFFFF;}
	.st20{clip-path:url(#SVGID_42_);fill:none;stroke:#FFFFFF;stroke-width:6;stroke-miterlimit:10;}
	.st21{clip-path:url(#SVGID_44_);}
	.st22{clip-path:url(#SVGID_46_);fill:none;stroke:#FFFFFF;stroke-width:6;stroke-miterlimit:10;}
	.st23{clip-path:url(#SVGID_48_);fill:#FFFFFF;}
	.st24{clip-path:url(#SVGID_50_);fill:none;stroke:#FFFFFF;stroke-width:6;stroke-miterlimit:10;}
	.st25{clip-path:url(#SVGID_52_);fill:#FFFFFF;}
	.st26{clip-path:url(#SVGID_54_);fill:none;stroke:#FFFFFF;stroke-width:6;stroke-miterlimit:10;}
	.st27{clip-path:url(#SVGID_56_);}
	.st28{clip-path:url(#SVGID_58_);fill:none;stroke:#FFFFFF;stroke-width:6;stroke-miterlimit:10;}
	.st29{stroke:#FFFFFF;stroke-width:6;stroke-miterlimit:10;}
</style>
<g id="Artwork_6_1_">
	<g>
		<g>
			<defs>
				<rect id="SVGID_1_" x="-13.7" y="-16.5" width="263.6" height="219.9"/>
			</defs>
			<clipPath id="SVGID_2_">
				<use xlink:href="#SVGID_1_"  style="overflow:visible;"/>
			</clipPath>
			<g class="st0">
				<g>
					<defs>
						<rect id="SVGID_3_" x="76.2" y="43.3" width="154.3" height="110.1"/>
					</defs>
					<clipPath id="SVGID_4_">
						<use xlink:href="#SVGID_3_"  style="overflow:visible;"/>
					</clipPath>
					<path class="st1" d="M210.5,75.7c-2.4,13.4-20.9,21.4-41.2,17.7s-34.8-17.5-32.4-31c2.4-13.4,20.9-21.4,41.2-17.7
						C198.5,48.4,212.9,62.3,210.5,75.7"/>
				</g>
				<g>
					<defs>
						<rect id="SVGID_5_" x="76.2" y="43.3" width="154.3" height="110.1"/>
					</defs>
					<clipPath id="SVGID_6_">
						<use xlink:href="#SVGID_5_"  style="overflow:visible;"/>
					</clipPath>
					<path class="st2" d="M210.5,75.7c-2.4,13.4-20.9,21.4-41.2,17.7s-34.8-17.5-32.4-31c2.4-13.4,20.9-21.4,41.2-17.7
						C198.5,48.4,212.9,62.3,210.5,75.7z"/>
				</g>
				<g>
					<defs>
						<rect id="SVGID_7_" x="76.2" y="43.3" width="154.3" height="110.1"/>
					</defs>
					<clipPath id="SVGID_8_">
						<use xlink:href="#SVGID_7_"  style="overflow:visible;"/>
					</clipPath>
					<path class="st3" d="M228.6,134.3c-2.4,13.4-20.9,21.4-41.2,17.7s-34.8-17.5-32.4-31c2.4-13.4,20.9-21.4,41.2-17.7
						C216.6,107,231.1,120.9,228.6,134.3"/>
				</g>
				<g>
					<defs>
						
							<rect id="SVGID_9_" x="79" y="105.3" transform="matrix(0.178 -0.984 0.984 0.178 -29.481 285.4846)" width="154.3" height="110.1"/>
					</defs>
					<clipPath id="SVGID_10_">
						<use xlink:href="#SVGID_9_"  style="overflow:visible;"/>
					</clipPath>
					
						<ellipse transform="matrix(0.178 -0.984 0.984 0.178 32.0855 293.7695)" class="st4" cx="191.9" cy="127.7" rx="24.7" ry="37.4"/>
				</g>
				<g>
					<defs>
						<rect id="SVGID_11_" x="76.2" y="43.3" width="154.3" height="110.1"/>
					</defs>
					<clipPath id="SVGID_12_">
						<use xlink:href="#SVGID_11_"  style="overflow:visible;"/>
					</clipPath>
					<path class="st5" d="M150.5,111.2c-2.4,13.4-20.9,21.4-41.2,17.7s-34.8-17.6-32.4-31s20.9-21.4,41.2-17.7
						C138.4,83.9,152.9,97.7,150.5,111.2"/>
				</g>
				<g>
					<defs>
						<rect id="SVGID_13_" x="76.2" y="43.3" width="154.3" height="110.1"/>
					</defs>
					<clipPath id="SVGID_14_">
						<use xlink:href="#SVGID_13_"  style="overflow:visible;"/>
					</clipPath>
					<path class="st6" d="M150.5,111.2c-2.4,13.4-20.9,21.4-41.2,17.7s-34.8-17.6-32.4-31s20.9-21.4,41.2-17.7
						C138.4,83.9,152.9,97.7,150.5,111.2z"/>
				</g>
				<g>
					<defs>
						<rect id="SVGID_15_" x="76.2" y="43.3" width="154.3" height="110.1"/>
					</defs>
					<clipPath id="SVGID_16_">
						<use xlink:href="#SVGID_15_"  style="overflow:visible;"/>
					</clipPath>
					<path class="st7" d="M76.4,96.4c2-1.3,5-2.7,8.6-2.6c5.7,0.2,9,4,12.9,6.4c8.5,5.1,11.7-1.5,23.8,1.6
						c9.6,2.5,11.4,7.1,20.8,7.7c4.3,0.3,7.9-0.4,10.2-1.1"/>
				</g>
				<g>
					<defs>
						<rect id="SVGID_17_" x="76.2" y="43.3" width="154.3" height="110.1"/>
					</defs>
					<clipPath id="SVGID_18_">
						<use xlink:href="#SVGID_17_"  style="overflow:visible;"/>
					</clipPath>
					<path class="st8" d="M76.4,96.4c2-1.3,5-2.7,8.6-2.6c5.7,0.2,9,4,12.9,6.4c8.5,5.1,11.7-1.5,23.8,1.6
						c9.6,2.5,11.4,7.1,20.8,7.7c4.3,0.3,7.9-0.4,10.2-1.1"/>
				</g>
				<g>
					<defs>
						<rect id="SVGID_19_" x="76.2" y="43.3" width="154.3" height="110.1"/>
					</defs>
					<clipPath id="SVGID_20_">
						<use xlink:href="#SVGID_19_"  style="overflow:visible;"/>
					</clipPath>
					<path class="st9" d="M154.1,119.7c2-1.3,5.1-2.6,8.6-2.5c5.7,0.2,8.9,4.1,12.8,6.6c8.4,5.2,11.7-1.4,23.8,2
						c9.5,2.6,11.3,7.3,20.7,8c4.3,0.3,7.9-0.3,10.2-0.9"/>
				</g>
				<g>
					<defs>
						<rect id="SVGID_21_" x="76.2" y="43.3" width="154.3" height="110.1"/>
					</defs>
					<clipPath id="SVGID_22_">
						<use xlink:href="#SVGID_21_"  style="overflow:visible;"/>
					</clipPath>
					<path class="st10" d="M154.1,119.7c2-1.3,5.1-2.6,8.6-2.5c5.7,0.2,8.9,4.1,12.8,6.6c8.4,5.2,11.7-1.4,23.8,2
						c9.5,2.6,11.3,7.3,20.7,8c4.3,0.3,7.9-0.3,10.2-0.9"/>
				</g>
				<g>
					<defs>
						<rect id="SVGID_23_" x="76.2" y="43.3" width="154.3" height="110.1"/>
					</defs>
					<clipPath id="SVGID_24_">
						<use xlink:href="#SVGID_23_"  style="overflow:visible;"/>
					</clipPath>
					<path class="st11" d="M137.9,57c2.1-1.1,5.3-2.2,8.8-1.7c5.6,0.7,8.5,4.9,12.2,7.7c7.9,6,11.8-0.3,23.5,4.1
						c9.2,3.5,10.6,8.3,19.9,9.8c4.2,0.7,7.9,0.4,10.3,0"/>
				</g>
				<g>
					<defs>
						<rect id="SVGID_25_" x="76.2" y="43.3" width="154.3" height="110.1"/>
					</defs>
					<clipPath id="SVGID_26_">
						<use xlink:href="#SVGID_25_"  style="overflow:visible;"/>
					</clipPath>
					<path class="st12" d="M137.9,57c2.1-1.1,5.3-2.2,8.8-1.7c5.6,0.7,8.5,4.9,12.2,7.7c7.9,6,11.8-0.3,23.5,4.1
						c9.2,3.5,10.6,8.3,19.9,9.8c4.2,0.7,7.9,0.4,10.3,0"/>
				</g>
			</g>
		</g>
		<g>
			<defs>
				<rect id="SVGID_27_" x="-13.7" y="-16.5" width="263.6" height="219.9"/>
			</defs>
			<clipPath id="SVGID_28_">
				<use xlink:href="#SVGID_27_"  style="overflow:visible;"/>
			</clipPath>
			<g class="st13">
				<g>
					<defs>
						<rect id="SVGID_29_" x="-13.7" y="-16.5" width="263.6" height="219.9"/>
					</defs>
					<clipPath id="SVGID_30_">
						<use xlink:href="#SVGID_29_"  style="overflow:visible;"/>
					</clipPath>
					<path class="st14" d="M224.4,172.6c-23.3,10.6-52.4-3.5-65.2-31.4c-12.7-28-4.2-59.2,19-69.8c23.3-10.6,52.4,3.5,65.2,31.4
						C256.2,130.8,247.7,162,224.4,172.6"/>
				</g>
				<g>
					<defs>
						<rect id="SVGID_31_" x="-13.7" y="-16.5" width="263.6" height="219.9"/>
					</defs>
					<clipPath id="SVGID_32_">
						<use xlink:href="#SVGID_31_"  style="overflow:visible;"/>
					</clipPath>
					<path class="st15" d="M224.4,172.6c-23.3,10.6-52.4-3.5-65.2-31.4c-12.7-28-4.2-59.2,19-69.8c23.3-10.6,52.4,3.5,65.2,31.4
						C256.2,130.8,247.7,162,224.4,172.6z"/>
				</g>
				<g>
					<defs>
						<rect id="SVGID_33_" x="-13.7" y="-16.5" width="263.6" height="219.9"/>
					</defs>
					<clipPath id="SVGID_34_">
						<use xlink:href="#SVGID_33_"  style="overflow:visible;"/>
					</clipPath>
					<path class="st16" d="M197,98.8c-23.3,10.6-52.4-3.5-65.2-31.4c-12.7-28-4.2-59.2,19-69.8C174.1-13,203.2,1.1,216,29
						C228.8,56.9,220.3,88.2,197,98.8"/>
				</g>
				<g>
					<defs>
						<rect id="SVGID_35_" x="-13.7" y="-16.5" width="263.6" height="219.9"/>
					</defs>
					<clipPath id="SVGID_36_">
						<use xlink:href="#SVGID_35_"  style="overflow:visible;"/>
					</clipPath>
					<path class="st17" d="M197,98.8c-23.3,10.6-52.4-3.5-65.2-31.4c-12.7-28-4.2-59.2,19-69.8C174.1-13,203.2,1.1,216,29
						C228.8,56.9,220.3,88.2,197,98.8z"/>
				</g>
				<g>
					<defs>
						<rect id="SVGID_37_" x="-13.7" y="-16.5" width="263.6" height="219.9"/>
					</defs>
					<clipPath id="SVGID_38_">
						<use xlink:href="#SVGID_37_"  style="overflow:visible;"/>
					</clipPath>
					<circle class="st18" cx="111.2" cy="104.2" r="96.2"/>
				</g>
				<g>
					<defs>
						<rect id="SVGID_39_" x="-13.7" y="-16.5" width="263.6" height="219.9"/>
					</defs>
					<clipPath id="SVGID_40_">
						<use xlink:href="#SVGID_39_"  style="overflow:visible;"/>
					</clipPath>
					<rect x="80.1" y="-13.5" class="st19" width="70.5" height="43.1"/>
				</g>
				<g>
					<defs>
						<rect id="SVGID_41_" x="-13.7" y="-16.5" width="263.6" height="219.9"/>
					</defs>
					<clipPath id="SVGID_42_">
						<use xlink:href="#SVGID_41_"  style="overflow:visible;"/>
					</clipPath>
					<rect x="80.1" y="-13.5" class="st20" width="70.5" height="43.1"/>
				</g>
				<g>
					<defs>
						<rect id="SVGID_43_" x="-13.7" y="-16.5" width="263.6" height="219.9"/>
					</defs>
					<clipPath id="SVGID_44_">
						<use xlink:href="#SVGID_43_"  style="overflow:visible;"/>
					</clipPath>
					<polygon class="st21" points="119.7,7.7 146.9,32.4 155.2,-1.7 					"/>
				</g>
				<g>
					<defs>
						<rect id="SVGID_45_" x="-13.7" y="-16.5" width="263.6" height="219.9"/>
					</defs>
					<clipPath id="SVGID_46_">
						<use xlink:href="#SVGID_45_"  style="overflow:visible;"/>
					</clipPath>
					<polygon class="st22" points="119.7,7.7 146.9,32.4 155.2,-1.7 					"/>
				</g>
				<g>
					<defs>
						
							<rect id="SVGID_47_" x="-53.4" y="-52.2" transform="matrix(0.866 -0.5 0.5 0.866 -18.3621 46.96)" width="263.6" height="219.9"/>
					</defs>
					<clipPath id="SVGID_48_">
						<use xlink:href="#SVGID_47_"  style="overflow:visible;"/>
					</clipPath>
					<rect x="-3.6" y="128" transform="matrix(0.866 -0.5 0.5 0.866 -70.5393 35.8521)" class="st23" width="70.5" height="43.1"/>
				</g>
				<g>
					<defs>
						
							<rect id="SVGID_49_" x="-53.4" y="-52.2" transform="matrix(0.866 -0.5 0.5 0.866 -18.3621 46.96)" width="263.6" height="219.9"/>
					</defs>
					<clipPath id="SVGID_50_">
						<use xlink:href="#SVGID_49_"  style="overflow:visible;"/>
					</clipPath>
					<rect x="-3.6" y="128" transform="matrix(0.866 -0.5 0.5 0.866 -70.5393 35.8521)" class="st24" width="70.5" height="43.1"/>
				</g>
				<g>
					<defs>
						
							<rect id="SVGID_51_" x="-20.1" y="71.9" transform="matrix(0.5 -0.866 0.866 0.5 -101.6562 187.704)" width="263.6" height="219.9"/>
					</defs>
					<clipPath id="SVGID_52_">
						<use xlink:href="#SVGID_51_"  style="overflow:visible;"/>
					</clipPath>
					
						<rect x="169.9" y="107.9" transform="matrix(0.5 -0.866 0.866 0.5 -28.2095 237.4037)" class="st25" width="43.1" height="70.5"/>
				</g>
				<g>
					<defs>
						
							<rect id="SVGID_53_" x="-20.1" y="71.9" transform="matrix(0.5 -0.866 0.866 0.5 -101.6562 187.704)" width="263.6" height="219.9"/>
					</defs>
					<clipPath id="SVGID_54_">
						<use xlink:href="#SVGID_53_"  style="overflow:visible;"/>
					</clipPath>
					
						<rect x="169.9" y="107.9" transform="matrix(0.5 -0.866 0.866 0.5 -28.2095 237.4037)" class="st26" width="43.1" height="70.5"/>
				</g>
				<g>
					<defs>
						<rect id="SVGID_55_" x="-13.7" y="-16.5" width="263.6" height="219.9"/>
					</defs>
					<clipPath id="SVGID_56_">
						<use xlink:href="#SVGID_55_"  style="overflow:visible;"/>
					</clipPath>
					<polygon class="st27" points="27.9,146.7 31.9,110.2 -0.6,123.5 					"/>
				</g>
				<g>
					<defs>
						<rect id="SVGID_57_" x="-13.7" y="-16.5" width="263.6" height="219.9"/>
					</defs>
					<clipPath id="SVGID_58_">
						<use xlink:href="#SVGID_57_"  style="overflow:visible;"/>
					</clipPath>
					<polygon class="st28" points="27.9,146.7 31.9,110.2 -0.6,123.5 					"/>
				</g>
			</g>
		</g>
	</g>
</g>
<polygon class="st29" points="197.1,141.4 166.4,160.9 198.6,177.8 "/>
</svg>
